<svg xmlns="http://www.w3.org/2000/svg" viewBox="0 0 1024 1024"><g><path fill-rule="evenodd" clip-rule="evenodd" fill="#f26222" d="M384 566s-1-122 1-124 24-4 24-4l1-90s-46 38-80 108 4 110 4 110h50zM652 566s0-122-2-124c-1-2-23-4-23-4l-2-90s41 38 75 108c33 69 1 110 1 110h-49zM425 462c6 0 12 6 12 12 0 7-6 12-12 12-7 0-12-5-12-12 0-6 5-12 12-12zM608 462c6 0 12 6 12 12 0 7-6 12-12 12-7 0-12-5-12-12 0-6 5-12 12-12zM442 320s18 27 70 27 81-27 81-27v118H442V320zM399 195h235c1 0 3 124-118 124-120 0-117-124-117-124z"/></g><path fill-rule="evenodd" clip-rule="evenodd" fill="#707272" d="M384 182h265s26-4 27-15c0-10-23-13-24-15v-50c-1-8-12-26-25-43-14-18-35-39-35-39s0 24-21 24c-22 0-19-25-19-25V0h-16v29s-1 15-21 15-23-16-23-16V0h-12v28s-3 20-20 20c-16 0-21-24-21-24s-19 16-33 36c-14 19-20 33-21 40-2 7 1 50 0 54-2 4-28 3-28 13 0 11 27 15 27 15z"/><g><path fill-rule="evenodd" clip-rule="evenodd" fill="#707272" d="M710 822a202 202 0 00-393 0H206a311 311 0 01615 0H710z"/><path fill-rule="evenodd" clip-rule="evenodd" fill="#707272" d="M472 470h88v98h-88v-98zM278 542l76-44 49 85-76 44-49-85zM749 545l-76-44-49 85 76 44 49-85zM892 716l-44-76-85 49 43 76 86-49zM138 716l44-76 85 49-44 76-85-49z"/></g><g><path fill-rule="evenodd" clip-rule="evenodd" fill="#f26222" d="M648 947l-55-26c-5-2-7 0-9 3-31 25-65 31-102 18-28-9-49-37-49-63h237l-2-43c-4-33-17-63-41-88-36-36-80-47-129-43-51 4-89 29-115 71-20 33-25 69-20 107 7 54 36 94 86 116 46 20 92 18 138 1 26-10 46-28 62-51l-1-2zM519 765c37 1 74 28 77 57H437c4-32 42-57 82-57z"/></g></svg>