<?xml version="1.0" encoding="utf-8"?>
<!-- Generator: Adobe Illustrator 22.0.1, SVG Export Plug-In . SVG Version: 6.00 Build 0)  -->
<svg version="1.1" xmlns="http://www.w3.org/2000/svg" xmlns:xlink="http://www.w3.org/1999/xlink" x="0px" y="0px"
	 viewBox="0 0 1024 1024" style="enable-background:new 0 0 1024 1024;" xml:space="preserve">
<style type="text/css">
	.st0{fill-rule:evenodd;clip-rule:evenodd;fill:#F26222;}
	.st1{fill-rule:evenodd;clip-rule:evenodd;fill:#707272;}
	.st2{display:none;fill:#F26222;}
	.st3{display:none;}
	.st4{display:inline;fill:#F26222;}
</style>
<g id="Figure">
	<path class="st0" d="M383.5,565.8c0,0-0.5-121.4,1.3-123.5c1.9-2.1,23.9-4,23.9-4L410,348c0,0-46,38.3-79.7,107.6s4,110.2,4,110.2
		H383.5z"/>
	<path class="st0" d="M651.7,565.8c0,0,0.5-121.4-1.3-123.5c-1.9-2.1-23.9-4-23.9-4l-1.3-90.3c0,0,40.6,38.3,74.4,107.6
		c33.7,69.3,1.3,110.2,1.3,110.2H651.7z"/>
	<path class="st0" d="M424.6,462.2c6.6,0,12,5.4,12,12c0,6.6-5.4,12-12,12c-6.6,0-12-5.4-12-12C412.7,467.6,418,462.2,424.6,462.2z"
		/>
	<path class="st0" d="M607.9,462.2c6.6,0,12,5.4,12,12c0,6.6-5.4,12-12,12c-6.6,0-12-5.4-12-12C596,467.6,601.3,462.2,607.9,462.2z"
		/>
	<path class="st0" d="M441.9,320.1c0,0,18.4,26.6,70.4,26.6c52,0,81-26.6,81-26.6v118.2H441.9V320.1z"/>
	<path class="st0" d="M399.4,195.2h235.1c0,0,2.2,123.5-118.2,123.5C395.8,318.8,399.4,195.2,399.4,195.2z"/>
</g>
<g id="Hardhat">
	<path class="st1" d="M383.5,182h265.6c0,0,26.1-4,26.6-14.6c0.4-10.6-22.6-13.7-23.9-15.9s0.9-41.2,0-49.1
		c-0.9-8-12-26.1-25.2-43.8C613.2,40.7,592,19.9,592,19.9s0.4,23.9-21.3,23.9c-21.7,0-18.6-25.2-18.6-25.2V0h-15.9v29.2
		c0,0-1.3,14.6-21.3,14.6c-19.9,0-22.6-15.9-22.6-15.9V0h-12v27.9c0,0-3.5,19.9-19.9,19.9c-16.4,0-21.3-23.9-21.3-23.9
		s-19,16.4-33.2,35.9c-14.2,19.5-19.9,32.8-21.3,39.8c-1.3,7.1,1.3,50.9,0,54.5c-1.3,3.5-27.9,2.7-27.9,13.3
		C356.9,178,383.5,182,383.5,182z"/>
</g>
<g id="Gear">
	<path class="st1" d="M709.8,822.1c-21.5-88.4-101.1-154.1-196.2-154.1c-95,0-174.7,65.7-196.2,154.1h-111
		c23-148.9,151.7-263,307.1-263c155.4,0,284.1,114,307.1,263H709.8z"/>
	<path class="st1" d="M472.4,470.2h87.7v98.3h-87.7V470.2z"/>
	<path class="st1" d="M278.3,542.1l75.9-43.8l49.1,85.1l-75.9,43.8L278.3,542.1z"/>
	<path class="st1" d="M749,544.7L673,500.9L623.9,586l75.9,43.8L749,544.7z"/>
	<path class="st1" d="M891.5,716l-43.8-75.9l-85.1,49.1l43.8,75.9L891.5,716z"/>
	<path class="st1" d="M138.3,716l43.8-75.9l85.1,49.1l-43.8,75.9L138.3,716z"/>
</g>
<g id="Indicator_Shape">
	<path id="e" class="st0" d="M647.6,947.3c-18.3-8.6-36.8-17.1-55-25.9c-4.3-2.1-6.3,0.1-9.1,2.4c-30.3,25-64.4,31.2-101.4,18.7
		c-28-9.5-49.1-37.3-49.5-63.6c78.7,0,157.4,0,237.7,0c-0.8-14.7-0.8-28.7-2.4-42.5c-3.8-33.8-17.1-63.5-41.1-87.9
		c-35.6-36.2-79.8-47.8-129.1-43.8c-50.4,4.1-88.4,28.8-114.7,71.1c-20.4,32.8-25.3,69.1-20.3,106.8c7.2,54.7,36.2,94.5,86.7,116.5
		c45.2,19.7,91.8,18.2,137.6,0.9c26.2-9.9,46.5-28,62.5-51C648.7,948.2,648.2,947.6,647.6,947.3z M519.4,765.3
		c36.7,0.7,73.6,27.7,76.3,56.3c-53,0-106,0-159.1,0C441,790.4,479.2,764.6,519.4,765.3z"/>
	<polygon id="Play_Button" class="st2" points="650.1,849.5 425.6,719.9 425.6,979.2 	"/>
	<path id="Snowflake" class="st2" d="M393,918.5c-7.5-2.6-13.7-4.7-19.9-7c-5.7-2.1-7.9-5.8-6.3-10.5c1.7-5.1,5.7-7,11.6-5.1
		c10.3,3.3,20.5,6.9,30.8,10.2c1.4,0.5,3.3,0.9,4.5,0.3c5.6-3,11.1-6.3,17.8-10.1c-7.5-2.7-14-4.8-20.4-7.2
		c-6.4-2.5-8.3-8.3-4.3-13.1c2.7-3.3,6.1-3.8,10.1-2.4c9.1,3.1,18.3,5.9,27.2,9.3c4.8,1.8,8.7,2,12.9-1.3c2.2-1.7,4.9-2.8,7.5-4.4
		c-4.9-12.7-5.4-25.2-0.9-38c-3.5-2.1-6.7-4.3-10.2-5.9c-1.5-0.7-3.8-0.8-5.4-0.3c-9.3,3-18.5,6.2-27.8,9.3c-1.5,0.5-3,1.2-4.6,1.4
		c-5.2,1-9-1.3-10.4-5.9c-1.2-4,1-8.2,5.8-10c6.4-2.4,12.9-4.5,20.5-7.2c-6.7-3.9-12.2-7.3-18-10.3c-1.1-0.6-3.1,0-4.5,0.4
		c-10.3,3.4-20.5,7-30.8,10.5c-3.8,1.3-7.4,0.8-10.1-2.6c-2.3-3-2.7-6.3-0.5-9.3c1.3-1.7,3.4-3.1,5.5-3.9c6.3-2.4,12.7-4.5,19.8-7
		c-6.8-4-13-7.6-19.3-11.3c-3.4-2-5.6-5.2-4.2-8.9c1-2.6,3.6-5.6,6.2-6.3c2.4-0.7,5.8,0.8,8.3,2.1c5.6,2.9,11,6.2,17.3,9.8
		c-1.4-7.1-2.5-13.2-3.7-19.2c-1.4-6.7,1-11.3,6.5-12.4c4.7-1,8.7,2.7,9.9,8.9c2,10.1,3.9,20.2,6,30.2c0.3,1.5,0.7,3.5,1.7,4.2
		c5.6,3.6,11.5,6.7,18.2,10.6c-1.4-7.3-2.6-13.5-3.9-19.7c-1.2-6.2,1.1-10.8,6-11.8c5.2-1.1,9.3,2.3,10.6,8.7
		c1.8,9.6,3.7,19.1,5.5,28.7c0.7,3.6,1.8,6.7,5.7,8.2c2.6,1,5,2.7,7.7,4.2c8.6-10.9,19.8-17.3,33.1-20c2-8.6,0.7-15.3-7.2-20.8
		c-7-4.8-13-11.1-19.4-16.8c-3.8-3.4-4.2-8.3-1.3-11.9c3-3.6,7.9-4,11.8-0.8c5.3,4.3,10.5,8.9,16.6,14.1c0-7.6,0.2-13.9-0.1-20.2
		c-0.1-1.6-1.7-3.4-3-4.6c-7.8-7-15.9-13.7-23.7-20.8c-5.5-4.9-4.5-12.6,2.1-14.4c2.6-0.7,6.6,0.6,9,2.3c5.2,3.6,9.9,8.1,14.8,12.2
		c0.1,0.1,0.3-0.1,1-0.3c0-6.5-0.1-13.2,0-19.9c0.2-6.4,3.7-9.8,9.1-9.3c4.7,0.4,7.5,3.7,7.7,9.2c0.1,6.8,0,13.5,0,21.7
		c3.6-2.9,6.4-5.2,9.1-7.5c2.6-2.2,5-4.6,7.6-6.7c4.1-3.2,9-2.9,11.9,0.7c2.7,3.3,2.4,8.2-1.2,11.5c-7,6.3-13.9,12.8-21.4,18.6
		c-4.7,3.7-6.8,7.6-6.1,13.5c0.5,4.3,0.1,8.8,0.1,14.5c5.8-5,10.6-9,15.3-13.2c5.1-4.4,9.6-4.6,13.1-0.6c3.4,3.8,2.5,8.6-2.4,12.9
		c-5.9,5.2-11.5,10.8-17.9,15.3c-7.5,5.3-9.8,12-7.5,21.3c12.9,2.7,24.4,9,33.2,20.3c3.7-2.1,7.4-4,10.7-6.3
		c1.2-0.9,2.1-2.8,2.5-4.4c2-9.6,3.8-19.1,5.7-28.7c0.2-1.2,0.5-2.4,0.8-3.6c1.4-4.9,5-7.7,9.2-6.9c4.8,0.8,7.6,5,6.7,10.5
		c-1,5.9-2.3,11.8-3.5,17.8c-0.2,0.8-0.1,1.6-0.2,3.3c6.3-3.6,12.1-6.7,17.6-10.2c1.3-0.9,2-3.2,2.3-5c2.2-10.4,4.1-20.9,6.4-31.3
		c1.3-6.1,6.6-8.9,11.5-6.3c4.3,2.2,5.2,6,4.3,10.4c-1.3,6.4-2.6,12.8-4.1,20.4c4.2-2.4,7.5-4.2,10.8-6.1c3.1-1.7,6.1-3.6,9.3-5.2
		c4.5-2.2,9-1,11.1,2.8c2.4,4.1,1.1,8.7-3.4,11.4c-6.1,3.7-12.3,7.1-19.5,11.3c7.5,2.6,14.1,4.8,20.6,7.2c6.1,2.3,8.1,7.8,4.6,12.7
		c-2.7,3.8-6.5,3.9-10.5,2.5c-10.1-3.4-20.2-7-30.3-10.1c-1.9-0.6-4.6-0.4-6.4,0.6c-5.3,2.7-10.4,5.9-16.4,9.5
		c7.6,2.6,14.1,4.7,20.6,7.1c5.8,2.2,7.8,7.1,5.1,11.8c-2.3,4-5.8,5-10.1,3.6c-9.1-3-18.3-5.8-27.2-9.3c-5.3-2.1-9.8-2.1-14.3,1.5
		c-1.6,1.3-3.6,2.2-5.8,3.5c4,12.1,4.1,24.1-0.1,36.1c-0.3,0.7-0.3,1.8,0.1,2.5c2,3.5,13.5,7.3,17.5,6c9.4-3.2,18.9-6.4,28.3-9.6
		c6.1-2.1,10.5-0.4,12.3,4.6c1.7,4.7-0.5,8.6-6.6,10.8c-6.1,2.2-12.3,4.2-19.8,6.8c6.9,4,12.7,7.5,18.6,10.5
		c1.1,0.6,3.1-0.1,4.6-0.5c10-3.3,19.9-6.7,29.8-10c6.1-2,10.1-0.5,11.8,4.4c1.7,4.8-0.6,8.8-6.4,10.9c-6.2,2.2-12.4,4.3-19.8,6.9
		c5.9,3.4,10.9,6.3,15.9,9.2c2,1.2,4.1,2.2,5.8,3.8c2.9,2.8,3.3,6.3,1.2,9.7c-2.2,3.5-5.5,5.4-9.6,3.4c-5.3-2.5-10.3-5.6-15.4-8.5
		c-1.7-0.9-3.4-1.9-6.1-3.4c1.5,7.7,2.9,14.3,4.1,21c0.7,4,0.1,8-4,9.5c-2.6,0.9-6.3,0.5-8.8-0.7c-1.7-0.8-2.8-3.9-3.4-6.2
		c-2.2-9.9-4.2-19.8-6-29.7c-0.6-3.5-2-5.7-5.2-7.3c-4.9-2.4-9.5-5.4-15.3-8.7c1.4,7.3,2.6,13.5,3.8,19.7c1.3,6.3-0.9,10.9-5.8,11.9
		c-5.1,1.1-8.9-1.8-10.2-8.3c-2-9.2-4.1-18.4-5.3-27.7c-0.7-5.3-3.3-8.1-7.7-10.4c-7.4-3.9-6.9-3.5-13.7,1.1
		c-8,5.4-16.8,9.5-26.4,14.8c0,3-0.2,8,0.1,12.9c0.1,1.5,1.4,3.2,2.6,4.2c7.7,6.9,15.6,13.6,23.3,20.4c4.8,4.2,5.7,9.4,2.4,13
		c-3.3,3.7-8.2,3.4-13.2-0.8c-4.7-4-9.4-8.1-15.2-13.1c0,8-0.1,14.8,0.1,21.5c0.1,1.2,1.7,2.6,2.8,3.6c7.7,6.8,15.6,13.6,23.3,20.4
		c4.5,3.9,5.3,9,2.3,12.6c-3.6,4.1-8.1,3.9-13.1-0.4c-4.8-4.2-9.6-8.3-15.5-13.4c0,8,0,14.7,0,21.4c0,4-1.2,7.5-5,9.3
		c-5.9,2.7-11.6-1.4-11.8-8.6c-0.2-6.7,0-13.4,0-21.4c-5.7,4.9-10.5,9-15.3,13.1c-5.2,4.3-9.5,4.4-13.1,0.4c-3.3-3.8-2.6-8.7,2.2-13
		c7.6-6.7,15.4-13.2,22.9-20.1c1.7-1.6,2.9-4.3,3.1-6.7c0.4-5.6,0.1-11.2,0.1-18.1c-4.6,4-8.3,7.2-12,10.4c-1.5,1.3-2.9,2.6-4.5,3.8
		c-4,3-9.3,2.7-12-0.7c-2.8-3.4-2.5-8.6,1.3-12c7.3-6.6,14.5-13.2,22.2-19.2c3.9-3.1,5.7-6.4,5.1-11.3c-0.4-3.1-0.1-6.4-0.1-8.8
		c-7.5-3.5-14.5-6.7-21.5-10.1c-1.6-0.8-2.9-2.1-4.3-3.1c-2.6-1.8-6.4-5.6-7.6-4.9c-5.6,3.1-13.1,4.3-14,13.3
		c-1,9.7-3.4,19.2-5.4,28.7c-1.2,5.7-5.2,8.4-10.5,7.3c-4.5-0.9-7.1-5.5-6.1-10.8c1.3-6.6,2.6-13.1,4.1-20.6
		c-6.5,3.7-12.3,6.7-17.7,10.3c-1.5,1-2.2,3.9-2.6,6c-2,9.7-3.7,19.5-5.6,29.2c-1.1,5.9-5.4,9.3-10.4,8.2c-4.9-1-7.3-5.8-6.1-11.8
		c1.3-6.2,2.5-12.4,3.9-19.8c-7.1,4.1-13.4,7.7-19.7,11.2c-3.5,1.9-7.3,2.1-9.7-1.1c-1.7-2.3-2.7-5.9-2.1-8.6
		c0.5-2.3,3.3-4.4,5.6-5.9C380.9,925.2,386.5,922.2,393,918.5z M550.3,857.4c0.1-20.4-15.7-36.8-35.6-36.9
		c-20.5-0.1-37.3,15.9-37.5,35.8c-0.2,21.1,16,37,37.7,37.1C534.1,893.4,550.2,877,550.3,857.4z"/>
	<g id="Layer_5" class="st3">
		<path class="st4" d="M514.9,1001.6c-20.8-20.6-59.2-58.4-73.1-72.3l-5.9-5.9c-17-17.1-31.6-32-43.6-44.7
			c-34.9-36.9-35.4-90.9-3-125c31.1-32.8,81-32.6,112,0.3l13.6,14.5l13.6-14.5c31-33,80.9-33.1,112-0.3c32.4,34.1,31.9,88.1-3,125
			c-12,12.7-26.6,27.6-43.6,44.7l-5.9,5.9C574.3,943.1,535.8,981,514.9,1001.6z"/>
	</g>
</g>
</svg>
